<svg width="38" height="22" viewBox="0 0 38 22" fill="none" xmlns="http://www.w3.org/2000/svg" opacity="0.175">
<path d="M2.25 8.25H14.25C15.3546 8.25 16.25 7.35457 16.25 6.25V2.25C16.25 1.14543 15.3546 0.25 14.25 0.25H2.25C1.14543 0.25 0.25 1.14543 0.25 2.25V6.25C0.25 7.35457 1.14543 8.25 2.25 8.25ZM2.25 8.25H4.25C4.4682 8.25 4.3991 8.48454 4.25 8.64385C3.54984 9.39195 2.60851 9.9738 2.25 10.25C1.81894 10.5821 2.61305 9.8661 2.31311 8.64385C2.26779 8.45916 2.05983 8.25 2.25 8.25Z" stroke="#4E4E4E" stroke-width="0.5"/>
<path d="M34.25 19.25H22.25C21.1454 19.25 20.25 18.3546 20.25 17.25V13.25C20.25 12.1454 21.1454 11.25 22.25 11.25H34.25C35.3546 11.25 36.25 12.1454 36.25 13.25V17.25C36.25 18.3546 35.3546 19.25 34.25 19.25ZM34.25 19.25H32.25C32.0318 19.25 32.1009 19.4845 32.25 19.6438C32.9502 20.392 33.8915 20.9738 34.25 21.25C34.6811 21.5821 33.887 20.8661 34.1869 19.6438C34.2322 19.4592 34.4402 19.25 34.25 19.25Z" stroke="#4E4E4E" stroke-width="0.5"/>
<path d="M18.6903 6.25V2.61364H20.8849V3.00426H19.1307V4.23295H20.7713V4.62358H19.1307V5.85938H20.9134V6.25H18.6903ZM24.0621 2.61364V6.25H23.636L21.6545 3.39489H21.619V6.25H21.1786V2.61364H21.6048L23.5934 5.47585H23.6289V2.61364H24.0621ZM26.9291 3.75C26.89 3.63045 26.8385 3.52332 26.7746 3.42862C26.7119 3.33274 26.6367 3.25107 26.5491 3.18359C26.4627 3.11612 26.3644 3.06463 26.2544 3.02912C26.1443 2.99361 26.0235 2.97585 25.8921 2.97585C25.6767 2.97585 25.4808 3.03149 25.3044 3.14276C25.128 3.25402 24.9878 3.41797 24.8836 3.63459C24.7794 3.85121 24.7274 4.11695 24.7274 4.43182C24.7274 4.74669 24.78 5.01243 24.8854 5.22905C24.9907 5.44567 25.1334 5.60961 25.3133 5.72088C25.4932 5.83215 25.6956 5.88778 25.9205 5.88778C26.1289 5.88778 26.3124 5.84339 26.471 5.75462C26.6308 5.66465 26.7551 5.538 26.8438 5.37464C26.9338 5.21011 26.9788 5.01657 26.9788 4.79403L27.1137 4.82244H26.02V4.43182H27.4049V4.82244C27.4049 5.12192 27.341 5.38234 27.2132 5.60369C27.0865 5.82505 26.9113 5.99669 26.6876 6.11861C26.4651 6.23935 26.2094 6.29972 25.9205 6.29972C25.5986 6.29972 25.3157 6.22396 25.0718 6.07244C24.8292 5.92093 24.6398 5.70549 24.5036 5.42614C24.3687 5.14678 24.3012 4.81534 24.3012 4.43182C24.3012 4.14418 24.3397 3.88553 24.4166 3.65589C24.4948 3.42507 24.6048 3.22857 24.7469 3.06641C24.8889 2.90424 25.057 2.77995 25.2512 2.69354C25.4453 2.60713 25.6589 2.56392 25.8921 2.56392C26.0839 2.56392 26.2626 2.59292 26.4284 2.65092C26.5953 2.70774 26.7438 2.78883 26.874 2.89418C27.0054 2.99834 27.1149 3.12322 27.2025 3.26882C27.2901 3.41323 27.3505 3.57363 27.3836 3.75H26.9291ZM27.6591 6.25V2.61364H28.0994V5.85938H29.7898V6.25H27.6591ZM30.4119 2.61364V6.25H29.9716V2.61364H30.4119ZM32.7835 3.52273C32.7622 3.3428 32.6758 3.20312 32.5242 3.10369C32.3727 3.00426 32.1869 2.95455 31.9667 2.95455C31.8057 2.95455 31.6649 2.98059 31.5441 3.03267C31.4246 3.08475 31.3311 3.15637 31.2636 3.24751C31.1973 3.33866 31.1642 3.44223 31.1642 3.55824C31.1642 3.6553 31.1872 3.73875 31.2334 3.80859C31.2807 3.87725 31.3411 3.93466 31.4145 3.98082C31.4879 4.0258 31.5648 4.06309 31.6453 4.09268C31.7258 4.12109 31.7998 4.14418 31.8673 4.16193L32.2366 4.26136C32.3313 4.28622 32.4366 4.32055 32.5526 4.36435C32.6698 4.40814 32.7817 4.46792 32.8882 4.54368C32.9959 4.61825 33.0847 4.71413 33.1546 4.83132C33.2244 4.94851 33.2593 5.09233 33.2593 5.26278C33.2593 5.45928 33.2078 5.63684 33.1048 5.79545C33.003 5.95407 32.8539 6.08014 32.6574 6.17365C32.4621 6.26716 32.2248 6.31392 31.9454 6.31392C31.685 6.31392 31.4595 6.2719 31.2689 6.18786C31.0795 6.10381 30.9304 5.98662 30.8215 5.83629C30.7137 5.68596 30.6528 5.51136 30.6386 5.3125H31.0931C31.105 5.44981 31.1511 5.56345 31.2316 5.65341C31.3133 5.74219 31.4163 5.80848 31.5406 5.85227C31.666 5.89489 31.801 5.91619 31.9454 5.91619C32.1135 5.91619 32.2644 5.88897 32.3982 5.83452C32.5319 5.77888 32.6379 5.70194 32.716 5.60369C32.7941 5.50426 32.8332 5.38826 32.8332 5.25568C32.8332 5.13494 32.7994 5.0367 32.732 4.96094C32.6645 4.88518 32.5757 4.82363 32.4656 4.77628C32.3556 4.72893 32.2366 4.6875 32.1088 4.65199L31.6613 4.52415C31.3772 4.44247 31.1523 4.32588 30.9866 4.17436C30.8209 4.02285 30.738 3.82457 30.738 3.57955C30.738 3.37595 30.7931 3.19839 30.9031 3.04688C31.0144 2.89418 31.1636 2.7758 31.3506 2.69176C31.5388 2.60653 31.7489 2.56392 31.9809 2.56392C32.2153 2.56392 32.4236 2.60594 32.6059 2.68999C32.7882 2.77285 32.9326 2.88648 33.0392 3.03089C33.1469 3.17531 33.2037 3.33925 33.2096 3.52273H32.7835ZM33.4833 6.25V2.61364H33.9237V4.23295H35.8626V2.61364H36.3029V6.25H35.8626V4.62358H33.9237V6.25H33.4833Z" fill="#4E4E4E"/>
<path d="M3.67898 14.5227C3.65767 14.3428 3.57126 14.2031 3.41974 14.1037C3.26823 14.0043 3.08239 13.9545 2.86222 13.9545C2.70123 13.9545 2.56037 13.9806 2.43963 14.0327C2.32008 14.0848 2.22656 14.1564 2.15909 14.2475C2.0928 14.3387 2.05966 14.4422 2.05966 14.5582C2.05966 14.6553 2.08274 14.7388 2.12891 14.8086C2.17625 14.8772 2.23662 14.9347 2.31001 14.9808C2.3834 15.0258 2.46035 15.0631 2.54084 15.0927C2.62133 15.1211 2.69531 15.1442 2.76278 15.1619L3.1321 15.2614C3.2268 15.2862 3.33215 15.3205 3.44815 15.3643C3.56534 15.4081 3.6772 15.4679 3.78374 15.5437C3.89145 15.6183 3.98023 15.7141 4.05007 15.8313C4.11991 15.9485 4.15483 16.0923 4.15483 16.2628C4.15483 16.4593 4.10334 16.6368 4.00036 16.7955C3.89856 16.9541 3.74941 17.0801 3.55291 17.1737C3.3576 17.2672 3.12027 17.3139 2.84091 17.3139C2.58049 17.3139 2.355 17.2719 2.16442 17.1879C1.97502 17.1038 1.82588 16.9866 1.71697 16.8363C1.60926 16.686 1.5483 16.5114 1.53409 16.3125H1.98864C2.00047 16.4498 2.04664 16.5634 2.12713 16.6534C2.20881 16.7422 2.31179 16.8085 2.43608 16.8523C2.56155 16.8949 2.6965 16.9162 2.84091 16.9162C3.009 16.9162 3.15992 16.889 3.29368 16.8345C3.42744 16.7789 3.53338 16.7019 3.61151 16.6037C3.68963 16.5043 3.72869 16.3883 3.72869 16.2557C3.72869 16.1349 3.69496 16.0367 3.62749 15.9609C3.56001 15.8852 3.47124 15.8236 3.36115 15.7763C3.25107 15.7289 3.1321 15.6875 3.00426 15.652L2.55682 15.5241C2.27273 15.4425 2.04782 15.3259 1.8821 15.1744C1.71638 15.0228 1.63352 14.8246 1.63352 14.5795C1.63352 14.3759 1.68857 14.1984 1.79865 14.0469C1.90992 13.8942 2.05907 13.7758 2.24609 13.6918C2.4343 13.6065 2.64441 13.5639 2.87642 13.5639C3.1108 13.5639 3.31913 13.6059 3.50142 13.69C3.68371 13.7728 3.82813 13.8865 3.93466 14.0309C4.04238 14.1753 4.0992 14.3393 4.10511 14.5227H3.67898ZM4.37882 17.25V13.6136H5.60751C5.89279 13.6136 6.12598 13.6651 6.30708 13.7681C6.48938 13.8699 6.62432 14.0078 6.71191 14.1818C6.79951 14.3558 6.84331 14.55 6.84331 14.7642C6.84331 14.9785 6.79951 15.1732 6.71191 15.3484C6.6255 15.5236 6.49174 15.6632 6.31064 15.7674C6.12953 15.8704 5.89752 15.9219 5.61461 15.9219H4.73393V15.5312H5.60041C5.79572 15.5312 5.95256 15.4975 6.07093 15.43C6.18931 15.3626 6.27512 15.2714 6.32839 15.1566C6.38284 15.0406 6.41007 14.9098 6.41007 14.7642C6.41007 14.6186 6.38284 14.4884 6.32839 14.3736C6.27512 14.2588 6.18871 14.1688 6.06916 14.1037C5.9496 14.0374 5.79099 14.0043 5.59331 14.0043H4.81916V17.25H4.37882ZM7.05265 17.25V13.6136H9.24725V14.0043H7.49299V15.233H9.13361V15.6236H7.49299V16.8594H9.27566V17.25H7.05265ZM9.69007 17.25H9.22843L10.5637 13.6136H11.0182L12.3534 17.25H11.8918L10.8051 14.1889H10.7767L9.69007 17.25ZM9.86053 15.8295H11.7213V16.2202H9.86053V15.8295ZM12.4198 17.25V13.6136H12.8602V15.4176H12.9028L14.5363 13.6136H15.1116L13.5846 15.2543L15.1116 17.25H14.5789L13.3147 15.5597L12.8602 16.071V17.25H12.4198Z" fill="#4E4E4E"/>
</svg>
